<svg height="512" viewBox="0 0 128 128" width="512" xmlns="http://www.w3.org/2000/svg"><g id="Circle_Grid" data-name="Circle Grid"><circle cx="64" cy="64" fill="#3b5059" r="64"/></g><g id="icon"><path d="m95.985 32.03-32.442-.465a3.574 3.574 0 0 0 -2.579 1.047l-40.44 40.44a1.786 1.786 0 0 0 0 2.528l31.9 31.9a1.786 1.786 0 0 0 2.528 0l40.437-40.445a3.573 3.573 0 0 0 1.047-2.577zm-11.449 11.449a4.482 4.482 0 1 1 6.338 0 4.478 4.478 0 0 1 -6.338 0z" fill="#f6c863"/><path d="m101.191 26.809a2.759 2.759 0 0 0 -3.9 0l-10.591 10.591a2.761 2.761 0 0 0 3.9 3.9l10.59-10.59a2.76 2.76 0 0 0 .001-3.901z" fill="#eeefee"/><path d="m33.815 52.385h46.327v37.273h-46.327z" fill="#eab54e" transform="matrix(.707 -.707 .707 .707 -33.531 61.092)"/></g></svg>